<svg width="115" height="97" viewBox="0 0 115 97" fill="none" xmlns="http://www.w3.org/2000/svg">
<g clip-path="url(#clip0_224_1381)">
<path opacity="0.2" d="M105.184 6.10352e-05H9.07214V96.1118H105.184V6.10352e-05Z" fill="#6C63FF"/>
<path opacity="0.5" d="M90.5896 8.97351H23.5349V87.2698H90.5896V8.97351Z" fill="#6C63FF"/>
<path d="M114.125 13.8055H78.2306V82.8324H114.125V13.8055Z" fill="url(#paint0_linear_224_1381)"/>
<path d="M35.894 14.0684H0V83.0953H35.894V14.0684Z" fill="url(#paint1_linear_224_1381)"/>
<path d="M112.941 14.8573H79.4139V81.3861H112.941V14.8573Z" fill="#6C63FF"/>
<path d="M1.18321 81.3861H34.7106L34.7106 14.8573H1.18321L1.18321 81.3861Z" fill="#6C63FF"/>
<path d="M29.1884 20.9054H6.70532V24.9813H29.1884V20.9054Z" fill="url(#paint2_linear_224_1381)"/>
<path d="M107.55 27.085H85.0674V31.1608H107.55V27.085Z" fill="url(#paint3_linear_224_1381)"/>
<path d="M107.419 33.3959H84.936V37.4718H107.419V33.3959Z" fill="url(#paint4_linear_224_1381)"/>
<path d="M107.419 39.707H84.936V43.7829H107.419V39.707Z" fill="url(#paint5_linear_224_1381)"/>
<path d="M107.419 46.018H84.936V50.0939H107.419V46.018Z" fill="url(#paint6_linear_224_1381)"/>
<path d="M107.419 52.329H84.936V56.4049H107.419V52.329Z" fill="url(#paint7_linear_224_1381)"/>
<path d="M107.419 58.6401H84.936V62.716H107.419V58.6401Z" fill="url(#paint8_linear_224_1381)"/>
<path d="M107.419 64.9512H84.936V69.027H107.419V64.9512Z" fill="url(#paint9_linear_224_1381)"/>
<path d="M107.419 71.2622H84.936V75.3381H107.419V71.2622Z" fill="url(#paint10_linear_224_1381)"/>
<path d="M107.419 20.9054H84.936V24.9813H107.419V20.9054Z" fill="url(#paint11_linear_224_1381)"/>
<path d="M29.1884 27.3479H6.70532V31.4238H29.1884V27.3479Z" fill="url(#paint12_linear_224_1381)"/>
<path d="M29.1884 33.5274H6.70532V37.6033H29.1884V33.5274Z" fill="url(#paint13_linear_224_1381)"/>
<path d="M29.1884 39.707H6.70532V43.7829H29.1884V39.707Z" fill="url(#paint14_linear_224_1381)"/>
<path d="M29.1884 46.018H6.70532V50.0939H29.1884V46.018Z" fill="url(#paint15_linear_224_1381)"/>
<path d="M29.1884 52.329H6.70532V56.4049H29.1884V52.329Z" fill="url(#paint16_linear_224_1381)"/>
<path d="M28.7941 21.4312H7.23145V24.5867H28.7941V21.4312Z" fill="white"/>
<path d="M28.7285 27.6108H7.16577V30.7663H28.7285V27.6108Z" fill="white"/>
<path d="M28.7285 33.9219H7.16577V37.0774H28.7285V33.9219Z" fill="white"/>
<path d="M28.7285 40.233H7.16577V43.3885H28.7285V40.233Z" fill="white"/>
<path d="M28.7285 46.5439H7.16577V49.6995H28.7285V46.5439Z" fill="white"/>
<path d="M28.7285 52.855H7.16577V56.0106H28.7285V52.855Z" fill="white"/>
<path d="M29.1884 58.6401H6.70532V62.716H29.1884V58.6401Z" fill="url(#paint17_linear_224_1381)"/>
<path d="M28.7285 59.1659H7.16577V62.3214H28.7285V59.1659Z" fill="white"/>
<path d="M28.7285 59.1659H7.16577V62.3214H28.7285V59.1659Z" fill="white"/>
<path d="M28.7285 65.4771H7.16577V68.6326H28.7285V65.4771Z" fill="white"/>
<path d="M28.7285 71.788H7.16577V74.9435H28.7285V71.788Z" fill="white"/>
<path d="M107.025 21.2998H85.4619V24.4553H107.025V21.2998Z" fill="white"/>
<path d="M107.025 27.6108H85.4619V30.7663H107.025V27.6108Z" fill="white"/>
<path d="M107.025 33.9219H85.4619V37.0774H107.025V33.9219Z" fill="white"/>
<path d="M107.025 40.233H85.4619V43.3885H107.025V40.233Z" fill="white"/>
<path d="M107.025 46.5439H85.4619V49.6995H107.025V46.5439Z" fill="white"/>
<path d="M107.025 52.855H85.4619V56.0106H107.025V52.855Z" fill="white"/>
<path d="M107.025 59.1659H85.4619V62.3214H107.025V59.1659Z" fill="white"/>
<path d="M107.025 65.4771H85.4619V68.6326H107.025V65.4771Z" fill="white"/>
<path d="M107.025 71.788H85.4619V74.9435H107.025V71.788Z" fill="white"/>
<path d="M96.6377 84.8046H17.3553V89.8008H96.6377V84.8046Z" fill="url(#paint18_linear_224_1381)"/>
<path d="M96.1118 85.3304H18.0128V89.2748H96.1118V85.3304Z" fill="#6C63FF"/>
<path d="M96.7691 6.57404H17.6183V11.7017H96.7691V6.57404Z" fill="url(#paint19_linear_224_1381)"/>
<path d="M96.1118 6.96844H18.0128V10.9128H96.1118V6.96844Z" fill="#6C63FF"/>
<path opacity="0.5" d="M76.3899 14.8573H37.9978V81.3861H76.3899V14.8573Z" fill="#263238"/>
<path d="M86.732 43.7894C87.6524 45.0227 86.2745 46.4795 86.2745 46.4795L86.5059 46.5597C86.1654 46.9371 84.8203 48.6397 79.6348 56.3418C72.995 66.2028 64.0478 68.6628 64.0478 68.6628C62.9607 67.8134 61.7241 67.1753 60.4019 66.7813V65.8504C62.0913 65.3522 63.635 64.4524 64.9012 63.2279C66.1673 62.0034 67.1182 60.4907 67.6727 58.8189C68.4644 57.2518 68.8761 55.5205 68.8745 53.7648C68.8745 47.4538 63.6455 42.334 57.1964 42.334C50.7473 42.334 45.5184 47.4525 45.5184 53.7648C45.5168 55.5205 45.9285 57.2518 46.7201 58.8189C47.2746 60.4907 48.2256 62.0034 49.4917 63.2279C50.7578 64.4524 52.3015 65.3522 53.9909 65.8504V66.7813C52.6688 67.1753 51.4321 67.8134 50.345 68.6628C50.345 68.6628 41.3939 66.2002 34.7541 56.3392C29.5686 48.6371 28.2235 46.9331 27.883 46.5571L28.1144 46.4769C28.1144 46.4769 26.7404 45.0201 27.6569 43.7868C28.5733 42.5535 21.5891 41.0967 22.3898 43.7868C23.1905 46.4769 24.2213 47.8219 24.2213 47.8219C24.2213 47.8219 38.8418 70.8809 46.4742 74.6911C46.2939 75.4725 46.2031 76.2717 46.2034 77.0736V81.557H68.1842V77.0736C68.1845 76.2717 68.0937 75.4725 67.9133 74.6911C75.5392 70.8782 90.1663 47.8232 90.1663 47.8232C90.1663 47.8232 91.1971 46.4782 91.9978 43.7881C92.7985 41.098 85.8156 42.5562 86.732 43.7894Z" fill="url(#paint20_linear_224_1381)"/>
<path d="M57.1938 65.5467C63.3704 65.5467 68.3775 60.5396 68.3775 54.3631C68.3775 48.1865 63.3704 43.1794 57.1938 43.1794C51.0172 43.1794 46.0101 48.1865 46.0101 54.3631C46.0101 60.5396 51.0172 65.5467 57.1938 65.5467Z" fill="#263238"/>
<path d="M57.1938 66.6446C63.0073 66.6446 67.72 61.9318 67.72 56.1183C67.72 50.3048 63.0073 45.592 57.1938 45.592C51.3803 45.592 46.6675 50.3048 46.6675 56.1183C46.6675 61.9318 51.3803 66.6446 57.1938 66.6446Z" fill="#F8C198"/>
<path d="M53.0269 55.1309C53.7538 55.1309 54.343 54.5416 54.343 53.8148C54.343 53.0879 53.7538 52.4987 53.0269 52.4987C52.3001 52.4987 51.7108 53.0879 51.7108 53.8148C51.7108 54.5416 52.3001 55.1309 53.0269 55.1309Z" fill="#263238"/>
<path d="M61.5799 55.1309C62.3068 55.1309 62.896 54.5416 62.896 53.8148C62.896 53.0879 62.3068 52.4987 61.5799 52.4987C60.853 52.4987 60.2638 53.0879 60.2638 53.8148C60.2638 54.5416 60.853 55.1309 61.5799 55.1309Z" fill="#263238"/>
<path d="M60.2638 60.941C60.2638 61.7299 58.8898 63.0249 57.1937 63.0249C55.4976 63.0249 54.1237 61.7299 54.1237 60.941C54.1237 60.1521 55.4976 60.1731 57.1937 60.1731C58.8898 60.1731 60.2638 60.1521 60.2638 60.941Z" fill="white"/>
<path d="M53.3559 54.2539C53.5984 54.2539 53.795 54.0573 53.795 53.8148C53.795 53.5722 53.5984 53.3756 53.3559 53.3756C53.1134 53.3756 52.9167 53.5722 52.9167 53.8148C52.9167 54.0573 53.1134 54.2539 53.3559 54.2539Z" fill="white"/>
<path d="M62.0178 54.2539C62.2603 54.2539 62.4569 54.0573 62.4569 53.8148C62.4569 53.5722 62.2603 53.3756 62.0178 53.3756C61.7752 53.3756 61.5786 53.5722 61.5786 53.8148C61.5786 54.0573 61.7752 54.2539 62.0178 54.2539Z" fill="white"/>
<path d="M58.2455 50.2754C57.6039 50.2754 57.028 49.7179 56.9596 49.0802C56.9374 48.7596 57.0137 48.4399 57.1782 48.1638C57.3426 47.8877 57.5875 47.6685 57.88 47.5353C57.9398 47.5044 58.0059 47.4873 58.0733 47.4854C58.2941 47.4854 58.4033 47.7483 58.4743 47.9574C58.6952 48.6043 59.087 49.2354 59.7023 49.5351C60.3176 49.8349 61.1775 49.6811 61.5023 49.0789C60.6319 48.691 60.2598 47.4735 60.766 46.6662C60.9619 46.3546 61.2669 46.0904 61.3287 45.7275C61.4418 45.0701 60.7213 44.5915 60.0836 44.3943C58.2429 43.825 51.8267 43.7619 51.473 46.5085C51.1022 49.4063 56.2247 50.6593 58.2455 50.2754Z" fill="#263238"/>
<path d="M47.7885 57.9648C48.1263 57.8316 48.0937 56.9471 47.7159 55.9893C47.338 55.0314 46.7579 54.363 46.4201 54.4962C46.0824 54.6295 46.1149 55.514 46.4928 56.4718C46.8707 57.4296 47.4508 58.0981 47.7885 57.9648Z" fill="#F8C198"/>
<path d="M67.8916 56.4649C68.2695 55.5071 68.3021 54.6226 67.9643 54.4893C67.6266 54.3561 67.0465 55.0246 66.6686 55.9824C66.2907 56.9402 66.2582 57.8247 66.5959 57.9579C66.9336 58.0912 67.5138 57.4227 67.8916 56.4649Z" fill="#F8C198"/>
<path d="M63.7559 68.9402C63.7559 68.9402 72.3245 66.5341 78.6841 56.8848C85.0438 47.2355 85.3725 47.2092 85.3725 47.2092L88.7713 48.5516C88.7713 48.5516 72.9832 73.9903 66.1857 75.3064C59.3882 76.6225 63.7559 68.9402 63.7559 68.9402Z" fill="#FF9800"/>
<path d="M85.0452 47.2368C85.0452 47.2368 86.36 45.8115 85.4843 44.6072C84.6086 43.4028 91.2957 41.9776 90.5279 44.6072C89.76 47.2368 88.7739 48.5516 88.7739 48.5516L85.0452 47.2368Z" fill="#F8C198"/>
<path d="M50.6316 68.9402C50.6316 68.9402 42.063 66.5341 35.7033 56.8848C29.3437 47.2355 29.015 47.2092 29.015 47.2092L25.6162 48.5516C25.6162 48.5516 41.4056 73.9903 48.2044 75.3064C55.0033 76.6225 50.6316 68.9402 50.6316 68.9402Z" fill="#FF9800"/>
<path d="M29.3425 47.2368C29.3425 47.2368 28.0277 45.8115 28.9033 44.6072C29.779 43.4028 23.0919 41.9776 23.8598 44.6072C24.6276 47.2368 25.6137 48.5516 25.6137 48.5516L29.3425 47.2368Z" fill="#F8C198"/>
<g opacity="0.2">
<path d="M60.7816 45.0674C60.7185 45.4303 60.4134 45.6932 60.2189 46.0062C59.7758 46.7135 60.0059 47.7364 60.6554 48.2413C60.562 48.0046 60.5235 47.7498 60.5429 47.4961C60.5622 47.2424 60.6389 46.9964 60.7671 46.7766C60.963 46.465 61.2681 46.2008 61.3299 45.8379C61.4009 45.4263 61.1445 45.0845 60.7868 44.8386C60.7962 44.9147 60.7944 44.9918 60.7816 45.0674Z" fill="white"/>
<path d="M58.0431 47.5971C58.001 47.4985 57.9615 47.3986 57.9273 47.2987C57.8563 47.0896 57.7472 46.8332 57.5263 46.8267C57.459 46.8286 57.3929 46.8457 57.3331 46.8766C57.0406 47.0098 56.7957 47.229 56.6312 47.5051C56.4668 47.7812 56.3905 48.1009 56.4127 48.4215C56.4371 48.6149 56.5021 48.8009 56.6034 48.9675C56.7046 49.134 56.84 49.2773 57.0004 49.3879C56.9819 49.3229 56.9687 49.2565 56.961 49.1894C56.9388 48.8688 57.015 48.549 57.1795 48.273C57.344 47.9969 57.5888 47.7776 57.8813 47.6445C57.9322 47.6198 57.9869 47.6038 58.0431 47.5971Z" fill="white"/>
<path d="M57.1163 49.6797C55.5175 49.7468 52.9379 49.1367 51.6665 47.839C52.6158 49.8585 56.5378 50.7039 58.2405 50.3792C58.0082 50.3714 57.7821 50.3026 57.5848 50.1799C57.3875 50.0571 57.2259 49.8846 57.1163 49.6797Z" fill="white"/>
<path d="M60.8331 48.5963C60.4492 49.0473 59.705 49.1419 59.1568 48.875C58.9777 48.7867 58.8135 48.6709 58.6703 48.5319C58.8827 49.0062 59.2467 49.3965 59.705 49.6416C60.3204 49.94 61.1802 49.7875 61.505 49.1853C61.2285 49.0586 60.995 48.8539 60.8331 48.5963Z" fill="white"/>
</g>
<path opacity="0.2" d="M88.3347 48.5515C88.3347 48.5515 72.5453 73.9903 65.7399 75.3064C65.3466 75.3851 64.948 75.4339 64.5474 75.4523C65.0951 75.4679 65.6428 75.4189 66.179 75.3064C72.9779 73.9916 88.7673 48.5515 88.7673 48.5515L88.4149 48.4266C88.3663 48.5095 88.3347 48.5515 88.3347 48.5515Z" fill="white"/>
<path opacity="0.2" d="M26.0527 48.5515C26.0527 48.5515 41.8421 73.9903 48.6475 75.3064C49.0407 75.3851 49.4394 75.4339 49.84 75.4523C49.2923 75.4679 48.7446 75.4189 48.2083 75.3064C41.4095 73.9916 25.6201 48.5515 25.6201 48.5515L25.9725 48.4266C26.0211 48.5095 26.0527 48.5515 26.0527 48.5515Z" fill="white"/>
<path d="M57.1938 66.6445C58.5761 66.6445 59.9449 66.9168 61.222 67.4458C62.4991 67.9748 63.6595 68.7502 64.637 69.7276C65.6144 70.7051 66.3898 71.8655 66.9188 73.1426C67.4478 74.4197 67.72 75.7885 67.72 77.1708V81.557H46.6675V77.1708C46.6675 75.7885 46.9398 74.4197 47.4687 73.1426C47.9977 71.8655 48.7731 70.7051 49.7506 69.7276C50.728 68.7502 51.8884 67.9748 53.1655 67.4458C54.4426 66.9168 55.8114 66.6445 57.1938 66.6445Z" fill="#FF9800"/>
<path opacity="0.2" d="M57.303 66.6998C56.92 66.6998 56.5373 66.7204 56.1565 66.7616C56.288 66.7616 56.4076 66.7537 56.5352 66.7537C59.3269 66.7537 62.0043 67.8628 63.9784 69.8368C65.9524 71.8109 67.0614 74.4883 67.0614 77.28V81.611H67.8293V77.2261C67.8293 74.4344 66.7203 71.757 64.7462 69.7829C62.7721 67.8088 60.0947 66.6998 57.303 66.6998Z" fill="white"/>
<path opacity="0.2" d="M57.0845 66.6998C57.4675 66.6998 57.8502 66.7204 58.231 66.7616C58.0995 66.7616 57.9799 66.7537 57.8523 66.7537C55.0606 66.7537 52.3832 67.8628 50.4091 69.8368C48.4351 71.8109 47.3261 74.4883 47.3261 77.28V81.611H46.5582V77.2261C46.5582 74.4344 47.6672 71.757 49.6413 69.7829C51.6154 67.8088 54.2928 66.6998 57.0845 66.6998Z" fill="white"/>
<path d="M60.2638 66.8089C60.2638 65.1133 58.8893 63.7388 57.1937 63.7388C55.4982 63.7388 54.1237 65.1133 54.1237 66.8089V68.0698C54.1237 69.7653 55.4982 71.1398 57.1937 71.1398C58.8893 71.1398 60.2638 69.7653 60.2638 68.0698V66.8089Z" fill="#F8C198"/>
</g>
<defs>
<linearGradient id="paint0_linear_224_1381" x1="96.1776" y1="82.8324" x2="96.1776" y2="13.8055" gradientUnits="userSpaceOnUse">
<stop stop-color="#808080" stop-opacity="0.25"/>
<stop offset="0.54" stop-color="#808080" stop-opacity="0.12"/>
<stop offset="1" stop-color="#808080" stop-opacity="0.1"/>
</linearGradient>
<linearGradient id="paint1_linear_224_1381" x1="17.947" y1="83.0953" x2="17.947" y2="14.0684" gradientUnits="userSpaceOnUse">
<stop stop-color="#808080" stop-opacity="0.25"/>
<stop offset="0.54" stop-color="#808080" stop-opacity="0.12"/>
<stop offset="1" stop-color="#808080" stop-opacity="0.1"/>
</linearGradient>
<linearGradient id="paint2_linear_224_1381" x1="17.9468" y1="24.9813" x2="17.9468" y2="20.9054" gradientUnits="userSpaceOnUse">
<stop stop-opacity="0.12"/>
<stop offset="0.55" stop-opacity="0.09"/>
<stop offset="1" stop-opacity="0.02"/>
</linearGradient>
<linearGradient id="paint3_linear_224_1381" x1="96.3089" y1="31.1608" x2="96.3089" y2="27.085" gradientUnits="userSpaceOnUse">
<stop stop-opacity="0.12"/>
<stop offset="0.55" stop-opacity="0.09"/>
<stop offset="1" stop-opacity="0.02"/>
</linearGradient>
<linearGradient id="paint4_linear_224_1381" x1="96.1776" y1="37.4718" x2="96.1776" y2="33.3959" gradientUnits="userSpaceOnUse">
<stop stop-opacity="0.12"/>
<stop offset="0.55" stop-opacity="0.09"/>
<stop offset="1" stop-opacity="0.02"/>
</linearGradient>
<linearGradient id="paint5_linear_224_1381" x1="96.1776" y1="43.7829" x2="96.1776" y2="39.707" gradientUnits="userSpaceOnUse">
<stop stop-opacity="0.12"/>
<stop offset="0.55" stop-opacity="0.09"/>
<stop offset="1" stop-opacity="0.02"/>
</linearGradient>
<linearGradient id="paint6_linear_224_1381" x1="96.1776" y1="50.0939" x2="96.1776" y2="46.018" gradientUnits="userSpaceOnUse">
<stop stop-opacity="0.12"/>
<stop offset="0.55" stop-opacity="0.09"/>
<stop offset="1" stop-opacity="0.02"/>
</linearGradient>
<linearGradient id="paint7_linear_224_1381" x1="96.1776" y1="56.4049" x2="96.1776" y2="52.329" gradientUnits="userSpaceOnUse">
<stop stop-opacity="0.12"/>
<stop offset="0.55" stop-opacity="0.09"/>
<stop offset="1" stop-opacity="0.02"/>
</linearGradient>
<linearGradient id="paint8_linear_224_1381" x1="96.1776" y1="62.716" x2="96.1776" y2="58.6401" gradientUnits="userSpaceOnUse">
<stop stop-opacity="0.12"/>
<stop offset="0.55" stop-opacity="0.09"/>
<stop offset="1" stop-opacity="0.02"/>
</linearGradient>
<linearGradient id="paint9_linear_224_1381" x1="96.1776" y1="69.027" x2="96.1776" y2="64.9512" gradientUnits="userSpaceOnUse">
<stop stop-opacity="0.12"/>
<stop offset="0.55" stop-opacity="0.09"/>
<stop offset="1" stop-opacity="0.02"/>
</linearGradient>
<linearGradient id="paint10_linear_224_1381" x1="96.1776" y1="75.3381" x2="96.1776" y2="71.2622" gradientUnits="userSpaceOnUse">
<stop stop-opacity="0.12"/>
<stop offset="0.55" stop-opacity="0.09"/>
<stop offset="1" stop-opacity="0.02"/>
</linearGradient>
<linearGradient id="paint11_linear_224_1381" x1="96.1776" y1="0.000105098" x2="96.1776" y2="0.000105098" gradientUnits="userSpaceOnUse">
<stop stop-opacity="0.12"/>
<stop offset="0.55" stop-opacity="0.09"/>
<stop offset="1" stop-opacity="0.02"/>
</linearGradient>
<linearGradient id="paint12_linear_224_1381" x1="6.70532" y1="29.3858" x2="29.1884" y2="29.3858" gradientUnits="userSpaceOnUse">
<stop stop-opacity="0.12"/>
<stop offset="0.55" stop-opacity="0.09"/>
<stop offset="1" stop-opacity="0.02"/>
</linearGradient>
<linearGradient id="paint13_linear_224_1381" x1="6.70532" y1="35.5653" x2="29.1884" y2="35.5653" gradientUnits="userSpaceOnUse">
<stop stop-opacity="0.12"/>
<stop offset="0.55" stop-opacity="0.09"/>
<stop offset="1" stop-opacity="0.02"/>
</linearGradient>
<linearGradient id="paint14_linear_224_1381" x1="6.70532" y1="41.745" x2="29.1884" y2="41.745" gradientUnits="userSpaceOnUse">
<stop stop-opacity="0.12"/>
<stop offset="0.55" stop-opacity="0.09"/>
<stop offset="1" stop-opacity="0.02"/>
</linearGradient>
<linearGradient id="paint15_linear_224_1381" x1="6.70532" y1="48.0559" x2="29.1884" y2="48.0559" gradientUnits="userSpaceOnUse">
<stop stop-opacity="0.12"/>
<stop offset="0.55" stop-opacity="0.09"/>
<stop offset="1" stop-opacity="0.02"/>
</linearGradient>
<linearGradient id="paint16_linear_224_1381" x1="6.70532" y1="54.367" x2="29.1884" y2="54.367" gradientUnits="userSpaceOnUse">
<stop stop-opacity="0.12"/>
<stop offset="0.55" stop-opacity="0.09"/>
<stop offset="1" stop-opacity="0.02"/>
</linearGradient>
<linearGradient id="paint17_linear_224_1381" x1="6.70532" y1="60.678" x2="29.1884" y2="60.678" gradientUnits="userSpaceOnUse">
<stop stop-opacity="0.12"/>
<stop offset="0.55" stop-opacity="0.09"/>
<stop offset="1" stop-opacity="0.02"/>
</linearGradient>
<linearGradient id="paint18_linear_224_1381" x1="17.3553" y1="87.3027" x2="96.6377" y2="87.3027" gradientUnits="userSpaceOnUse">
<stop stop-color="#808080" stop-opacity="0.25"/>
<stop offset="0.54" stop-color="#808080" stop-opacity="0.12"/>
<stop offset="1" stop-color="#808080" stop-opacity="0.1"/>
</linearGradient>
<linearGradient id="paint19_linear_224_1381" x1="57.1937" y1="11.7017" x2="57.1937" y2="6.57404" gradientUnits="userSpaceOnUse">
<stop stop-color="#808080" stop-opacity="0.25"/>
<stop offset="0.54" stop-color="#808080" stop-opacity="0.12"/>
<stop offset="1" stop-color="#808080" stop-opacity="0.1"/>
</linearGradient>
<linearGradient id="paint20_linear_224_1381" x1="57.1938" y1="81.557" x2="57.1938" y2="42.2708" gradientUnits="userSpaceOnUse">
<stop stop-color="#808080" stop-opacity="0.25"/>
<stop offset="0.54" stop-color="#808080" stop-opacity="0.12"/>
<stop offset="1" stop-color="#808080" stop-opacity="0.1"/>
</linearGradient>
<clipPath id="clip0_224_1381">
<rect width="114.124" height="96.1117" fill="white"/>
</clipPath>
</defs>
</svg>
